<svg width="200" height="200" viewBox="0 0 200 200" xmlns="http://www.w3.org/2000/svg"><title>sprinkles</title><g fill="none" fill-rule="evenodd"><g fill="#FF7600"><rect transform="rotate(-43 117.823 .558)" x="3" y="-3" width="2.725" height="9" rx="1.362"/><rect transform="rotate(30 -172.53 98.141)" x="3" y="-3" width="2.725" height="9" rx="1.362"/><rect transform="rotate(-77 90.98 6.332)" x="3" y="-3" width="2.725" height="9" rx="1.362"/><rect transform="rotate(-114 70.692 11.084)" x="3" y="-3" width="2.725" height="9" rx="1.362"/><rect transform="rotate(-77 86.48 -33.169)" x="3" y="-3" width="2.725" height="9" rx="1.362"/><rect transform="rotate(1 -3305.458 7492.71)" x="3" y="-3" width="2.725" height="9" rx="1.362"/><rect transform="rotate(-67 127.156 -3.646)" x="3" y="-3" width="2.725" height="9" rx="1.362"/><rect transform="rotate(-41 177.75 -.805)" x="3" y="-3" width="2.725" height="9" rx="1.362"/><rect transform="rotate(26 -289.223 186.431)" x="3" y="-3" width="2.725" height="9" rx="1.362"/><rect transform="rotate(-77 139.266 3.688)" x="3" y="-3" width="2.725" height="9" rx="1.362"/><rect transform="rotate(-41 224.925 -118.825)" x="3" y="-3" width="2.725" height="9" rx="1.362"/><rect transform="rotate(-151 96.718 31.836)" x="3" y="-3" width="2.725" height="9" rx="1.362"/><rect transform="rotate(139 72.543 71.099)" x="3" y="-3" width="2.725" height="9" rx="1.362"/><rect transform="rotate(106 68.907 119.481)" x="3" y="-3" width="2.725" height="9" rx="1.362"/><rect transform="rotate(139 71.918 90.811)" x="3" y="-3" width="2.725" height="9" rx="1.362"/><rect transform="rotate(-152 97.705 49.207)" x="3" y="-3" width="2.725" height="9" rx="1.362"/><rect transform="rotate(-164 85.627 69.93)" x="3" y="-3" width="2.725" height="9" rx="1.362"/><rect transform="rotate(140 49.798 113.41)" x="3" y="-3" width="2.725" height="9" rx="1.362"/><rect transform="rotate(-160 109.79 59.032)" x="3" y="-3" width="2.725" height="9" rx="1.362"/><rect transform="rotate(110 39.468 153.335)" x="3" y="-3" width="2.725" height="9" rx="1.362"/><rect transform="rotate(-178 71.202 96.473)" x="3" y="-3" width="2.725" height="9" rx="1.362"/><rect transform="rotate(102 -22.16 134.105)" x="3" y="-3" width="2.725" height="9" rx="1.362"/><rect transform="rotate(102 -36.68 109.1)" x="3" y="-3" width="2.725" height="9" rx="1.362"/><rect transform="rotate(139 -17.849 88.933)" x="3" y="-3" width="2.725" height="9" rx="1.362"/><rect transform="rotate(-180 2.931 97.569)" x="3" y="-3" width="2.725" height="9" rx="1.362"/><rect transform="rotate(-50 160.243 -106.418)" x="3" y="-3" width="2.725" height="9" rx="1.362"/><rect transform="rotate(-135 80.224 28.804)" x="3" y="-3" width="2.725" height="9" rx="1.362"/><rect transform="rotate(-41 158.425 59.037)" x="3" y="-3" width="2.725" height="9" rx="1.362"/><rect transform="rotate(18 -403.643 130.058)" x="3" y="-3" width="2.725" height="9" rx="1.362"/><rect transform="rotate(18 -485.908 101.018)" x="3" y="-3" width="2.725" height="9" rx="1.362"/><rect transform="rotate(-81 53.573 -12.485)" x="3" y="-3" width="2.725" height="9" rx="1.362"/><rect transform="rotate(-44 56.564 -2.662)" x="3" y="-3" width="2.725" height="9" rx="1.362"/><rect transform="rotate(-163 9.926 12.743)" x="3" y="-3" width="2.725" height="9" rx="1.362"/><rect transform="rotate(-157 31.371 3.642)" x="3" y="-3" width="2.725" height="9" rx="1.362"/><rect transform="rotate(-157 14.382 -.523)" x="3" y="-3" width="2.725" height="9" rx="1.362"/><rect transform="rotate(-81 55.265 -59.31)" x="3" y="-3" width="2.725" height="9" rx="1.362"/><rect transform="rotate(-143 81.027 -24.145)" x="3" y="-3" width="2.725" height="9" rx="1.362"/><rect transform="rotate(-159 98.168 -8.304)" x="3" y="-3" width="2.725" height="9" rx="1.362"/><rect transform="rotate(15 -13.974 546.809)" x="3" y="-3" width="2.725" height="9" rx="1.362"/><rect transform="rotate(-40 128.738 -189.7)" x="3" y="-3" width="2.725" height="9" rx="1.362"/><rect transform="rotate(-82 120.658 -88.462)" x="3" y="-3" width="2.725" height="9" rx="1.362"/><rect transform="rotate(-49 94.192 36.707)" x="3" y="-3" width="2.725" height="9" rx="1.362"/><rect transform="translate(-2.862 58.862)" x="3" y="-3" width="2.725" height="9" rx="1.362"/></g><g fill="#9F70FF"><rect transform="rotate(-130 26.394 9.542)" x="3" y="-3" width="2.725" height="9" rx="1.362"/><rect transform="rotate(-130 46.178 -6.658)" x="3" y="-3" width="2.725" height="9" rx="1.362"/><rect transform="rotate(-149 35.888 -9.042)" x="3" y="-3" width="2.725" height="9" rx="1.362"/><rect transform="rotate(161 59.275 19.105)" x="3" y="-3" width="2.725" height="9" rx="1.362"/><rect transform="rotate(-135 91.934 -17.294)" x="3" y="-3" width="2.725" height="9" rx="1.362"/><rect transform="rotate(-135 105.526 -7.107)" x="3" y="-3" width="2.725" height="9" rx="1.362"/><rect transform="rotate(-157 106.89 19.878)" x="3" y="-3" width="2.725" height="9" rx="1.362"/><rect transform="rotate(-131 115.956 26.532)" x="3" y="-3" width="2.725" height="9" rx="1.362"/><rect transform="rotate(-131 123.115 46.215)" x="3" y="-3" width="2.725" height="9" rx="1.362"/><rect transform="rotate(-145 123.525 68.46)" x="3" y="-3" width="2.725" height="9" rx="1.362"/><rect transform="rotate(-145 57.025 89.427)" x="3" y="-3" width="2.725" height="9" rx="1.362"/><rect transform="rotate(-131 56.615 76.521)" x="3" y="-3" width="2.725" height="9" rx="1.362"/><rect transform="rotate(149 19 108.537)" x="3" y="-3" width="2.725" height="9" rx="1.362"/><rect transform="rotate(141 28.468 110.33)" x="3" y="-3" width="2.725" height="9" rx="1.362"/><rect transform="rotate(165 50.32 83.888)" x="3" y="-3" width="2.725" height="9" rx="1.362"/><rect transform="rotate(177 44.451 63.697)" x="3" y="-3" width="2.725" height="9" rx="1.362"/><rect transform="rotate(-131 49.456 56.837)" x="3" y="-3" width="2.725" height="9" rx="1.362"/><rect transform="rotate(135 27.573 61.398)" x="3" y="-3" width="2.725" height="9" rx="1.362"/><rect transform="rotate(135 74.253 107.094)" x="3" y="-3" width="2.725" height="9" rx="1.362"/><rect transform="rotate(135 -23.847 64.116)" x="3" y="-3" width="2.725" height="9" rx="1.362"/><rect transform="rotate(-131 115.956 26.532)" x="3" y="-3" width="2.725" height="9" rx="1.362"/><rect transform="rotate(-131 76.38 60.267)" x="3" y="-3" width="2.725" height="9" rx="1.362"/><rect transform="rotate(130 71.275 86.653)" x="3" y="-3" width="2.725" height="9" rx="1.362"/><rect transform="rotate(130 58.775 80.824)" x="3" y="-3" width="2.725" height="9" rx="1.362"/><rect transform="rotate(130 57.705 68.76)" x="3" y="-3" width="2.725" height="9" rx="1.362"/><rect transform="rotate(130 49.3 50.231)" x="3" y="-3" width="2.725" height="9" rx="1.362"/><rect transform="rotate(152 38.54 41.514)" x="3" y="-3" width="2.725" height="9" rx="1.362"/><rect transform="rotate(-138 38.129 21.21)" x="3" y="-3" width="2.725" height="9" rx="1.362"/><rect transform="rotate(-157 40.39 33.407)" x="3" y="-3" width="2.725" height="9" rx="1.362"/><rect transform="rotate(-157 69.508 33.21)" x="3" y="-3" width="2.725" height="9" rx="1.362"/><rect transform="rotate(-157 69.508 33.21)" x="3" y="-3" width="2.725" height="9" rx="1.362"/><rect transform="rotate(133 -7.778 37.696)" x="3" y="-3" width="2.725" height="9" rx="1.362"/><rect transform="rotate(133 6.092 55.022)" x="3" y="-3" width="2.725" height="9" rx="1.362"/><rect transform="rotate(133 -6.908 49.37)" x="3" y="-3" width="2.725" height="9" rx="1.362"/><rect transform="rotate(133 6.178 79.436)" x="3" y="-3" width="2.725" height="9" rx="1.362"/><rect transform="rotate(133 41.33 92.937)" x="3" y="-3" width="2.725" height="9" rx="1.362"/></g><g fill="#F1102D"><rect transform="rotate(-30 38 -41.722)" x="3" y="-3" width="2.725" height="9" rx="1.362"/><rect transform="rotate(-42 64.943 -40.511)" x="3" y="-3" width="2.725" height="9" rx="1.362"/><rect transform="rotate(27 -79.71 37.278)" x="3" y="-3" width="2.725" height="9" rx="1.362"/><rect transform="rotate(43 -44.56 66.076)" x="3" y="-3" width="2.725" height="9" rx="1.362"/><rect transform="rotate(43 -9.445 132.888)" x="3" y="-3" width="2.725" height="9" rx="1.362"/><rect transform="rotate(11 -297.521 407.882)" x="3" y="-3" width="2.725" height="9" rx="1.362"/><rect transform="rotate(24 -89.315 313.724)" x="3" y="-3" width="2.725" height="9" rx="1.362"/><rect transform="rotate(-47 119.689 36.808)" x="3" y="-3" width="2.725" height="9" rx="1.362"/><rect transform="rotate(15 -268.425 104.204)" x="3" y="-3" width="2.725" height="9" rx="1.362"/><rect transform="rotate(48 -87.987 110.016)" x="3" y="-3" width="2.725" height="9" rx="1.362"/><rect transform="rotate(-65 125.226 -15.537)" x="3" y="-3" width="2.725" height="9" rx="1.362"/><rect transform="rotate(48 -93.71 139.477)" x="3" y="-3" width="2.725" height="9" rx="1.362"/><rect transform="rotate(48 -186.66 128.381)" x="3" y="-3" width="2.725" height="9" rx="1.362"/><rect transform="rotate(48 -154.213 187.945)" x="3" y="-3" width="2.725" height="9" rx="1.362"/><rect transform="rotate(12 -907.158 439.127)" x="3" y="-3" width="2.725" height="9" rx="1.362"/><rect transform="rotate(20 -500.432 440.293)" x="3" y="-3" width="2.725" height="9" rx="1.362"/><rect transform="rotate(25 -386.544 106.99)" x="3" y="-3" width="2.725" height="9" rx="1.362"/><rect transform="rotate(48 -93.71 139.477)" x="3" y="-3" width="2.725" height="9" rx="1.362"/><rect transform="rotate(48 -40.158 147.929)" x="3" y="-3" width="2.725" height="9" rx="1.362"/><rect transform="rotate(48 -20.987 260.5)" x="3" y="-3" width="2.725" height="9" rx="1.362"/><rect transform="rotate(48 -80.193 194.012)" x="3" y="-3" width="2.725" height="9" rx="1.362"/><rect transform="rotate(18 -407.648 385.5)" x="3" y="-3" width="2.725" height="9" rx="1.362"/><rect transform="rotate(-31 344.093 -215.271)" x="3" y="-3" width="2.725" height="9" rx="1.362"/><rect transform="rotate(-37 338.044 -181.225)" x="3" y="-3" width="2.725" height="9" rx="1.362"/><rect transform="rotate(-33 260.525 29.142)" x="3" y="-3" width="2.725" height="9" rx="1.362"/><rect transform="rotate(-33 302.784 10.447)" x="3" y="-3" width="2.725" height="9" rx="1.362"/><rect transform="rotate(-3 3231.945 -2175.598)" x="3" y="-3" width="2.725" height="9" rx="1.362"/><rect transform="rotate(26 -304.302 394.449)" x="3" y="-3" width="2.725" height="9" rx="1.362"/><rect transform="rotate(50 -110.702 269.444)" x="3" y="-3" width="2.725" height="9" rx="1.362"/><rect transform="rotate(14 4.214 407.496)" x="3" y="-3" width="2.725" height="9" rx="1.362"/><rect transform="rotate(5 -291.11 1374.449)" x="3" y="-3" width="2.725" height="9" rx="1.362"/><rect transform="rotate(-27 107.39 -326.095)" x="3" y="-3" width="2.725" height="9" rx="1.362"/><rect transform="rotate(-35 140.529 -264.05)" x="3" y="-3" width="2.725" height="9" rx="1.362"/><rect transform="rotate(45 25.717 225.968)" x="3" y="-3" width="2.725" height="9" rx="1.362"/><rect transform="rotate(25 -20.082 340.452)" x="3" y="-3" width="2.725" height="9" rx="1.362"/><rect transform="rotate(25 -87.253 379.005)" x="3" y="-3" width="2.725" height="9" rx="1.362"/><rect transform="rotate(-48 184.713 -111.817)" x="3" y="-3" width="2.725" height="9" rx="1.362"/><rect transform="rotate(2 -2109.635 5147.312)" x="3" y="-3" width="2.725" height="9" rx="1.362"/></g><g fill="#008DEA"><rect transform="rotate(-151 37.224 -1.513)" x="3" y="-3" width="2.725" height="9" rx="1.362"/><rect transform="rotate(178 23.966 4.437)" x="3" y="-3" width="2.725" height="9" rx="1.362"/><rect transform="rotate(178 90.966 5.606)" x="3" y="-3" width="2.725" height="9" rx="1.362"/><rect transform="rotate(-132 66.854 -23.497)" x="3" y="-3" width="2.725" height="9" rx="1.362"/><rect transform="rotate(-66 96.113 -84.758)" x="3" y="-3" width="2.725" height="9" rx="1.362"/><rect transform="rotate(-30 188.435 -237.413)" x="3" y="-3" width="2.725" height="9" rx="1.362"/><rect transform="rotate(-42 150.679 -209.355)" x="3" y="-3" width="2.725" height="9" rx="1.362"/><rect transform="rotate(-135 110.683 -4.557)" x="3" y="-3" width="2.725" height="9" rx="1.362"/><rect transform="rotate(-135 104.499 -33.628)" x="3" y="-3" width="2.725" height="9" rx="1.362"/><rect transform="rotate(129 30.138 31.338)" x="3" y="-3" width="2.725" height="9" rx="1.362"/><rect transform="rotate(-157 49.896 3.356)" x="3" y="-3" width="2.725" height="9" rx="1.362"/><rect transform="rotate(-136 44.044 23.783)" x="3" y="-3" width="2.725" height="9" rx="1.362"/><rect transform="rotate(150 2.416 33.275)" x="3" y="-3" width="2.725" height="9" rx="1.362"/><rect transform="rotate(131 -12.707 62.967)" x="3" y="-3" width="2.725" height="9" rx="1.362"/><rect transform="rotate(131 13.572 68.904)" x="3" y="-3" width="2.725" height="9" rx="1.362"/><rect transform="rotate(-160 31.981 48.376)" x="3" y="-3" width="2.725" height="9" rx="1.362"/><rect transform="rotate(-113 87.095 23.256)" x="3" y="-3" width="2.725" height="9" rx="1.362"/><rect transform="rotate(135 55.567 89.981)" x="3" y="-3" width="2.725" height="9" rx="1.362"/><rect transform="rotate(135 45.674 77.097)" x="3" y="-3" width="2.725" height="9" rx="1.362"/><rect transform="rotate(135 41.644 61.369)" x="3" y="-3" width="2.725" height="9" rx="1.362"/><rect transform="rotate(-160 98.981 36.562)" x="3" y="-3" width="2.725" height="9" rx="1.362"/><rect transform="rotate(179 90.364 71.837)" x="3" y="-3" width="2.725" height="9" rx="1.362"/><rect transform="rotate(-129 98.899 41.465)" x="3" y="-3" width="2.725" height="9" rx="1.362"/><rect transform="rotate(116 19.267 126.14)" x="3" y="-3" width="2.725" height="9" rx="1.362"/><rect transform="rotate(138 59.828 124.303)" x="3" y="-3" width="2.725" height="9" rx="1.362"/><rect transform="rotate(-146 124.563 43.581)" x="3" y="-3" width="2.725" height="9" rx="1.362"/><rect transform="rotate(151 52.339 117.546)" x="3" y="-3" width="2.725" height="9" rx="1.362"/><rect transform="rotate(179 23.364 71.253)" x="3" y="-3" width="2.725" height="9" rx="1.362"/><rect transform="rotate(136 -8.9 99.017)" x="3" y="-3" width="2.725" height="9" rx="1.362"/><rect transform="rotate(154 -12.06 100.05)" x="3" y="-3" width="2.725" height="9" rx="1.362"/><rect transform="rotate(-131 76.09 88.78)" x="3" y="-3" width="2.725" height="9" rx="1.362"/><rect transform="rotate(-131 142.59 58.474)" x="3" y="-3" width="2.725" height="9" rx="1.362"/><rect transform="rotate(136 4.1 104.27)" x="3" y="-3" width="2.725" height="9" rx="1.362"/><rect transform="rotate(136 4.13 95.557)" x="3" y="-3" width="2.725" height="9" rx="1.362"/><rect transform="rotate(117 -46.757 84.303)" x="3" y="-3" width="2.725" height="9" rx="1.362"/><rect transform="rotate(129 29.8 39.769)" x="3" y="-3" width="2.725" height="9" rx="1.362"/><rect transform="rotate(129 16.56 34.068)" x="3" y="-3" width="2.725" height="9" rx="1.362"/><rect transform="rotate(113 -6.808 17.513)" x="3" y="-3" width="2.725" height="9" rx="1.362"/><rect transform="rotate(-164 45.694 68.655)" x="3" y="-3" width="2.725" height="9" rx="1.362"/><rect transform="rotate(-147 70.69 65.178)" x="3" y="-3" width="2.725" height="9" rx="1.362"/></g><g fill="#FFD214"><rect transform="rotate(-25 59.588 -33.204)" x="3" y="-3" width="2.725" height="9" rx="1.362"/><rect transform="rotate(-61 54.134 10.031)" x="3" y="-3" width="2.725" height="9" rx="1.362"/><rect transform="rotate(-34 100.017 -107.354)" x="3" y="-3" width="2.725" height="9" rx="1.362"/><rect transform="rotate(14 40.58 299.692)" x="3" y="-3" width="2.725" height="9" rx="1.362"/><rect transform="rotate(14 3.425 535.733)" x="3" y="-3" width="2.725" height="9" rx="1.362"/><rect transform="rotate(49 27.355 128.984)" x="3" y="-3" width="2.725" height="9" rx="1.362"/><rect transform="rotate(-22 130.341 -384.21)" x="3" y="-3" width="2.725" height="9" rx="1.362"/><rect transform="rotate(-63 118.48 -97.148)" x="3" y="-3" width="2.725" height="9" rx="1.362"/><rect transform="rotate(-22 259.239 -401.866)" x="3" y="-3" width="2.725" height="9" rx="1.362"/><rect transform="rotate(42 36.297 274.47)" x="3" y="-3" width="2.725" height="9" rx="1.362"/><rect transform="rotate(52 -11.318 168.049)" x="3" y="-3" width="2.725" height="9" rx="1.362"/><rect transform="rotate(-23 202.394 -240.97)" x="3" y="-3" width="2.725" height="9" rx="1.362"/><rect transform="rotate(9 -810.807 531.31)" x="3" y="-3" width="2.725" height="9" rx="1.362"/><rect transform="rotate(9 -791.541 369.983)" x="3" y="-3" width="2.725" height="9" rx="1.362"/><rect transform="rotate(37 -175.954 77.829)" x="3" y="-3" width="2.725" height="9" rx="1.362"/><rect transform="rotate(16 -531.017 60.713)" x="3" y="-3" width="2.725" height="9" rx="1.362"/><rect transform="rotate(-26 345.84 34.945)" x="3" y="-3" width="2.725" height="9" rx="1.362"/><rect transform="rotate(-64 158.093 77.294)" x="3" y="-3" width="2.725" height="9" rx="1.362"/><rect transform="rotate(-39 281.275 -23.666)" x="3" y="-3" width="2.725" height="9" rx="1.362"/><rect transform="rotate(-22 553.052 -187.045)" x="3" y="-3" width="2.725" height="9" rx="1.362"/><rect transform="rotate(53 -104.295 186.202)" x="3" y="-3" width="2.725" height="9" rx="1.362"/><rect transform="rotate(11 -709.9 751.558)" x="3" y="-3" width="2.725" height="9" rx="1.362"/><rect transform="rotate(41 -89.26 255.71)" x="3" y="-3" width="2.725" height="9" rx="1.362"/><rect transform="rotate(-22 475.027 -317.21)" x="3" y="-3" width="2.725" height="9" rx="1.362"/><rect transform="rotate(-64 224.61 -29.118)" x="3" y="-3" width="2.725" height="9" rx="1.362"/><rect transform="rotate(37 -173.62 377.805)" x="3" y="-3" width="2.725" height="9" rx="1.362"/><rect transform="rotate(18 -308.824 641.677)" x="3" y="-3" width="2.725" height="9" rx="1.362"/><rect transform="rotate(37 -240.12 179.057)" x="3" y="-3" width="2.725" height="9" rx="1.362"/><rect transform="rotate(-44 213.67 -182.767)" x="3" y="-3" width="2.725" height="9" rx="1.362"/><rect transform="rotate(-42 138.163 -48.272)" x="3" y="-3" width="2.725" height="9" rx="1.362"/><rect transform="rotate(-27 162.019 -39.847)" x="3" y="-3" width="2.725" height="9" rx="1.362"/><rect transform="rotate(36 -42.115 114.557)" x="3" y="-3" width="2.725" height="9" rx="1.362"/><rect transform="rotate(9 -544.183 670.138)" x="3" y="-3" width="2.725" height="9" rx="1.362"/><rect transform="rotate(-39 223.866 -107.556)" x="3" y="-3" width="2.725" height="9" rx="1.362"/><rect transform="rotate(-48 186.722 -45.86)" x="3" y="-3" width="2.725" height="9" rx="1.362"/><rect transform="rotate(23 -37.294 -.696)" x="3" y="-3" width="2.725" height="9" rx="1.362"/><rect transform="rotate(14 48.44 195.387)" x="3" y="-3" width="2.725" height="9" rx="1.362"/><rect transform="rotate(-26 456.13 21.628)" x="3" y="-3" width="2.725" height="9" rx="1.362"/><rect transform="rotate(-26 523.13 -268.581)" x="3" y="-3" width="2.725" height="9" rx="1.362"/></g><g fill="#00C24D"><rect transform="rotate(45 -28.726 61.932)" x="3" y="-3" width="2.725" height="9" rx="1.362"/><rect transform="rotate(-43 91.362 3.662)" x="3" y="-3" width="2.725" height="9" rx="1.362"/><rect transform="rotate(-27 199.745 -11.24)" x="3" y="-3" width="2.725" height="9" rx="1.362"/><rect transform="rotate(56 -49.242 116.962)" x="3" y="-3" width="2.725" height="9" rx="1.362"/><rect transform="rotate(25 -226.296 192.594)" x="3" y="-3" width="2.725" height="9" rx="1.362"/><rect transform="rotate(1 -6350.04 1730.846)" x="3" y="-3" width="2.725" height="9" rx="1.362"/><rect transform="rotate(1 -6132.363 411.077)" x="3" y="-3" width="2.725" height="9" rx="1.362"/><rect transform="rotate(1 -5106.065 -170.867)" x="3" y="-3" width="2.725" height="9" rx="1.362"/><rect transform="rotate(-47 169.751 63.77)" x="3" y="-3" width="2.725" height="9" rx="1.362"/><rect transform="rotate(59 -113.314 111.418)" x="3" y="-3" width="2.725" height="9" rx="1.362"/><rect transform="rotate(13 -659.146 317.507)" x="3" y="-3" width="2.725" height="9" rx="1.362"/><rect transform="rotate(34 -179.359 209.736)" x="3" y="-3" width="2.725" height="9" rx="1.362"/><rect transform="rotate(63 -32.555 144.443)" x="3" y="-3" width="2.725" height="9" rx="1.362"/><rect transform="rotate(-45 246.067 -97.755)" x="3" y="-3" width="2.725" height="9" rx="1.362"/><rect transform="rotate(48 -107.155 275.714)" x="3" y="-3" width="2.725" height="9" rx="1.362"/><rect transform="rotate(12 -655.124 973.164)" x="3" y="-3" width="2.725" height="9" rx="1.362"/><rect transform="rotate(-38 364.521 -128.97)" x="3" y="-3" width="2.725" height="9" rx="1.362"/><rect transform="rotate(-38 324.788 -89.05)" x="3" y="-3" width="2.725" height="9" rx="1.362"/><rect transform="rotate(-53 221.456 -8.268)" x="3" y="-3" width="2.725" height="9" rx="1.362"/><rect transform="rotate(1 -10916.086 3776.147)" x="3" y="-3" width="2.725" height="9" rx="1.362"/><rect transform="rotate(-41 275.186 67.985)" x="3" y="-3" width="2.725" height="9" rx="1.362"/><rect transform="rotate(51 -161.112 124.14)" x="3" y="-3" width="2.725" height="9" rx="1.362"/><rect transform="rotate(2 -5595.913 2858.286)" x="3" y="-3" width="2.725" height="9" rx="1.362"/><rect transform="rotate(63 -35.64 218.162)" x="3" y="-3" width="2.725" height="9" rx="1.362"/><rect transform="rotate(-163 32.953 10.063)" x="3" y="-3" width="2.725" height="9" rx="1.362"/><rect transform="rotate(-143 47.993 -10.382)" x="3" y="-3" width="2.725" height="9" rx="1.362"/><rect transform="rotate(-180 68.931 46.431)" x="3" y="-3" width="2.725" height="9" rx="1.362"/><rect transform="rotate(-180 74.431 54.931)" x="3" y="-3" width="2.725" height="9" rx="1.362"/><rect transform="rotate(-180 85.931 57.431)" x="3" y="-3" width="2.725" height="9" rx="1.362"/><rect transform="rotate(-152 114.9 35.575)" x="3" y="-3" width="2.725" height="9" rx="1.362"/><rect transform="rotate(-180 52.431 33.431)" x="3" y="-3" width="2.725" height="9" rx="1.362"/><rect transform="rotate(-180 36.431 30.431)" x="3" y="-3" width="2.725" height="9" rx="1.362"/><rect transform="rotate(-116 29.58 .175)" x="3" y="-3" width="2.725" height="9" rx="1.362"/><rect transform="rotate(140 6.237 6.602)" x="3" y="-3" width="2.725" height="9" rx="1.362"/><rect transform="rotate(135 44.529 39.703)" x="3" y="-3" width="2.725" height="9" rx="1.362"/><rect transform="rotate(135 57.508 49.666)" x="3" y="-3" width="2.725" height="9" rx="1.362"/><rect transform="rotate(-127 98.037 -20.03)" x="3" y="-3" width="2.725" height="9" rx="1.362"/><rect transform="rotate(135 69.901 63.586)" x="3" y="-3" width="2.725" height="9" rx="1.362"/><rect transform="rotate(151 73.14 65.72)" x="3" y="-3" width="2.725" height="9" rx="1.362"/><rect transform="rotate(138 73.027 31.908)" x="3" y="-3" width="2.725" height="9" rx="1.362"/><rect transform="rotate(-118 95.851 -39.268)" x="3" y="-3" width="2.725" height="9" rx="1.362"/><rect transform="rotate(-171 98.585 6.684)" x="3" y="-3" width="2.725" height="9" rx="1.362"/></g></g></svg>