<?xml version="1.0" standalone="no"?><!DOCTYPE svg PUBLIC "-//W3C//DTD SVG 1.1//EN" "http://www.w3.org/Graphics/SVG/1.1/DTD/svg11.dtd"><svg t="1553582736623" class="icon" style="" viewBox="0 0 1024 1024" version="1.1" xmlns="http://www.w3.org/2000/svg" p-id="4059" xmlns:xlink="http://www.w3.org/1999/xlink" width="128" height="128"><defs><style type="text/css"></style></defs><path d="M670.4 435.9l-18.7-14.2c0.2-2 0.4-4.1 0.4-6.5 0-2.4-0.2-4.5-0.4-6.5l18.7-14.2c5.1-3.9 6.5-10.8 3.1-16.7l-20.8-35.2c-2.4-4.1-6.9-6.7-11.6-6.7-1.6 0-2.9 0.2-4.5 0.8l-22.2 8.7c-3.7-2.6-7.7-4.7-11.6-6.5l-3.3-22.6c-1-6.5-6.5-11.2-13.2-11.2h-42.1c-6.7 0-12.2 4.7-13.2 11l-3.1 22.8c-3.9 1.8-7.7 3.9-11.6 6.5l-22.2-8.7c-1.6-0.6-3.1-0.8-4.7-0.8-4.7 0-9.2 2.4-11.4 6.5l-21 35.4c-3.3 5.5-2 12.8 3.1 16.7l18.7 14.2c-0.2 2.4-0.4 4.5-0.4 6.5s0 4.1 0.4 6.5L460 435.9c-5.1 3.9-6.5 10.8-3.1 16.7l20.8 35.2c2.4 4.1 6.9 6.7 11.6 6.7 1.6 0 2.9-0.2 4.5-0.8L516 485c3.7 2.6 7.7 4.7 11.6 6.5l3.3 22.6c0.8 6.3 6.5 11.2 13.2 11.2h42.1c6.7 0 12.2-4.7 13.2-11l3.3-22.8c3.9-1.8 7.7-3.9 11.6-6.5l22.2 8.7c1.6 0.6 3.1 0.8 4.7 0.8 4.7 0 9.2-2.4 11.4-6.5l21-35.6c3.3-5.7 2-12.5-3.2-16.5z m-30.2 42.3l-20.3-7.9-7.7-3-6.9 4.5c-3.1 2.2-6.3 3.9-9.4 5.3l-7.7 3.5-1.2 8.3-2.9 20.6h-37.8l-2.9-20.5-1.2-8.5-7.7-3.5c-3.1-1.6-6.5-3.3-9.4-5.3l-6.9-4.5-7.7 3-20.1 7.9-18.7-31.3 16.5-12.6 6.9-5.3-0.8-8.7c-0.2-1.8-0.2-3.5-0.2-5.1 0-1.6 0-3.3 0.2-5.1l0.8-8.7-6.9-5.3-16.5-12.6 18.5-31.3 20.3 7.9 7.7 3 6.9-4.5c3.1-2.2 6.3-3.9 9.4-5.3l7.7-3.5 1.2-8.3 2.9-20.6h37.8l2.9 20.5 1.2 8.5 7.7 3.5c3.1 1.6 6.5 3.3 9.4 5.3l6.9 4.5 7.7-3 20.1-7.9 18.7 31.3-16.5 12.6-6.9 5.3 0.8 8.7c0.2 1.8 0.2 3.5 0.2 5.1 0 1.6 0 3.3-0.2 5.1l-0.8 8.7 6.9 5.3 16.5 12.6-18.5 31.3z" fill="#CC8DFC" p-id="4060"></path><path d="M565.2 368.1c-26 0-47.2 21.2-47.2 47.2 0 26 21.2 47.2 47.2 47.2 26 0 47.2-21.2 47.2-47.2 0-26-21.2-47.2-47.2-47.2z m0 78.6c-17.3 0-31.5-14.2-31.5-31.5s14.2-31.5 31.5-31.5 31.5 14.2 31.5 31.5c0 17.4-14.2 31.5-31.5 31.5z" fill="#CC8DFC" p-id="4061"></path><path d="M505.8 51.6c-248.5 0-450 201.5-450 450s201.5 450 450 450 450-201.5 450-450-201.4-450-450-450z m205.4 436.7l-29.8 65.4c-28.5 40.9-25.6 88.9-20.5 116.3 2.3 12.4-5 24.6-17.1 28.4-50.6 15.7-99 44.1-127.2 62.3-12.5 8.1-29.2 3.5-35.9-9.8-9.8-19.5-22.5-40.1-22.5-40.1-17.7-21.4-46.5-13.9-62.3-12.1-44.6 5.6-55.8-7.4-55.8-7.4-10.2-5.6-5.6-30.7-5.6-30.7 3.7-13-1.9-19.5-5.6-24.2-9.3-13.9-3.7-20.5-3.7-20.5 2.8-3.7 0.9-5.6 0.9-5.6-11.2-3.7-12.1-9.3-12.1-9.3v-19.5c1.9-13.9-4.6-14.9-4.6-14.9-25.1-0.9-24.2-16.7-24.2-16.7-0.9-8.4 28.8-61.4 28.8-61.4 13.9-27-6.5-42.8-7.4-56.7-6.5-64.2 14.9-104.1 44.6-134.8 49.3-51.1 111.6-60.4 152.5-60.4 105.1 0.9 146.9 34.4 179.4 69.7 0.7 0.8 1.4 1.6 2.1 2.3 43.3 49.6 53.2 119.9 26 179.7z" fill="#CC8DFC" p-id="4062"></path></svg>