<?xml version="1.0" standalone="no"?><!DOCTYPE svg PUBLIC "-//W3C//DTD SVG 1.1//EN" "http://www.w3.org/Graphics/SVG/1.1/DTD/svg11.dtd"><svg t="1553582697513" class="icon" style="" viewBox="0 0 1024 1024" version="1.1" xmlns="http://www.w3.org/2000/svg" p-id="2608" xmlns:xlink="http://www.w3.org/1999/xlink" width="128" height="128"><defs><style type="text/css"></style></defs><path d="M938.325333 154.658133c-2.389333 78.677333-19.490133 154.299733-48.059733 227.584-34.1504 87.688533-84.1216 164.795733-154.1632 228.5568-5.700267 5.205333-7.458133 10.7008-6.724267 18.005334 2.474667 23.620267 4.386133 47.274667 6.826667 70.792533 5.700267 55.005867-13.687467 100.078933-58.333867 131.959467-47.9232 34.286933-97.672533 65.9456-147.131733 98.013866-31.146667 20.189867-69.410133 1.809067-72.9088-34.8672a5427.2 5427.2 0 0 1-10.069333-126.583466c-1.450667-21.111467-0.8704-21.316267-21.486934-23.995734-54.664533-7.168-97.501867-32.938667-126.856533-79.701333-15.138133-24.098133-22.6304-50.7392-25.258667-78.779733-0.785067-8.362667-4.181333-10.478933-12.151466-10.9056a6890.786133 6890.786133 0 0 1-132.6592-8.311467c-36.7616-2.7648-55.3984-41.301333-35.703467-73.386667C107.52 470.459733 122.2144 448.392533 136.533333 426.0864c15.36-23.995733 30.6688-48.128 46.08-72.0896 28.2624-43.912533 68.983467-67.6352 121.070934-68.096 29.866667-0.2048 59.733333 5.000533 89.565866 8.192 5.632 0.580267 9.642667-0.170667 13.499734-4.488533 69.239467-76.8512 154.965333-128.699733 251.9552-163.413334a715.400533 715.400533 0 0 1 169.1136-38.365866c29.184-2.9696 58.538667-4.096 87.722666 1.28 15.854933 2.901333 16.708267 3.584 19.1488 18.978133 2.474667 15.394133 4.437333 30.890667 3.652267 46.574933z m-167.0144 193.9456c0.580267-51.848533-42.6496-96.4608-94.0544-97.314133-53.367467-0.8704-99.652267 37.6832-100.9152 97.8944-1.024 50.2272 44.731733 95.675733 95.829334 96.0512a98.474667 98.474667 0 0 0 69.751466-27.886933 97.1264 97.1264 0 0 0 29.3888-68.744534z" fill="#74B2EE" p-id="2609"></path><path d="M197.1712 644.7104c13.073067 0.1536 20.343467 5.888 25.0368 19.217067 18.414933 52.0704 51.882667 91.579733 100.471467 118.357333 10.717867 5.888 21.9648 10.7008 33.655466 14.660267 20.992 7.1168 25.770667 27.374933 10.1888 43.008-23.04 23.108267-46.336 45.943467-69.376 69.12-7.6288 7.6288-16.0256 11.178667-26.743466 7.2704-10.888533-4.027733-16.145067-12.049067-16.674134-23.261867-0.375467-7.082667-0.187733-14.199467-0.341333-21.316267-0.3072-13.090133-0.443733-13.192533-12.561067-9.181866-25.873067 8.465067-51.780267 17.152-77.636266 25.617066-7.68 2.525867-15.325867 3.584-22.784-0.6144-10.9056-6.212267-15.0528-17.2032-10.666667-30.7712 8.618667-26.4192 17.646933-52.6848 26.453333-79.0528 3.822933-11.434667 3.584-11.6736-8.874666-11.844266-7.509333-0.1024-15.018667 0-22.493867-0.426667-10.888533-0.512-18.688-5.700267-22.7328-16.008533-3.925333-10.001067-1.4336-18.6368 5.9392-26.026667 24.046933-23.995733 48.213333-48.008533 72.362667-71.901867 4.795733-4.744533 10.496-7.441067 16.776533-6.843733z" fill="#BFE9FC" p-id="2610"></path></svg>