<?xml version="1.0" standalone="no"?><!DOCTYPE svg PUBLIC "-//W3C//DTD SVG 1.1//EN" "http://www.w3.org/Graphics/SVG/1.1/DTD/svg11.dtd"><svg t="1553582644060" class="icon" style="" viewBox="0 0 1024 1024" version="1.1" xmlns="http://www.w3.org/2000/svg" p-id="1760" xmlns:xlink="http://www.w3.org/1999/xlink" width="128" height="128"><defs><style type="text/css"></style></defs><path d="M61.44 512c0 248.84224 201.72288 450.56 450.56 450.56 248.84224 0 450.56-201.71776 450.56-450.56 0-248.83712-201.71776-450.56-450.56-450.56-248.83712 0-450.56 201.72288-450.56 450.56z" fill="#E6FCDE" p-id="1761"></path><path d="M563.53792 725.376V390.85056c-1.11104-17.78176-12.22144-33.7152-28.89728-41.12384l-3.70688-1.85344-32.60416-14.81728-20.00384-8.89344L305.69984 246.3744c-6.66624-2.96448-13.33248-4.44928-20.00384-4.44928a48.92672 48.92672 0 0 0-48.90112 49.26976v480.49664h327.12704l-0.384-46.31552zM376.46336 436.41856V373.8112h62.60736v62.60736H376.46336z m62.23872 54.46144v62.61248H376.0896V490.88h62.61248z m-70.38976 109.65504h78.16704v124.84096H368.31232v-124.84096z" fill="#61DF18" p-id="1762"></path><path d="M745.06752 350.84288c-5.19168 0-10.368 1.11616-15.55968 2.96448l-133.36064 53.34528 1.83808 366.02368h189.68576V393.81504a42.67008 42.67008 0 0 0-42.60352-42.97216z m-102.61504 170.04544h54.46144v54.45632h-54.46144v-54.45632z m61.1328 204.12416h-67.80416v-108.53376h67.80416v108.53376z" fill="#ADF77C" p-id="1763"></path></svg>