<?xml version="1.0" standalone="no"?><!DOCTYPE svg PUBLIC "-//W3C//DTD SVG 1.1//EN" "http://www.w3.org/Graphics/SVG/1.1/DTD/svg11.dtd"><svg t="1553582764091" class="icon" style="" viewBox="0 0 1025 1024" version="1.1" xmlns="http://www.w3.org/2000/svg" p-id="4605" xmlns:xlink="http://www.w3.org/1999/xlink" width="128.125" height="128"><defs><style type="text/css"></style></defs><path d="M227.84 684.24a81.44 81.44 0 0 1-81.28-81.28V421.04a81.44 81.44 0 0 1 81.28-81.28h81.2v42.24H227.84a39.52 39.52 0 0 0-38.96 38.96v180.4a40 40 0 0 0 38.96 40.64H611.2v40.64H227.84z m523.12 0v-42.24H832a40 40 0 0 0 40.64-40.64V421.04a40 40 0 0 0-40.64-40.64H443.92v-40.64H832a80.48 80.48 0 0 1 81.2 81.2v180.4A80.48 80.48 0 0 1 832 682.56H750.96z" fill="#282E39" p-id="4606"></path><path d="M439.04 895.44a81.44 81.44 0 0 1-81.2-81.2v-65.04H400v64.96a39.2 39.2 0 0 0 11.36 27.6 38.08 38.08 0 0 0 27.6 11.36h180.4a40 40 0 0 0 40.64-40.64V430.8h40.64v383.44a80.48 80.48 0 0 1-81.2 81.2z" fill="#41A2FF" p-id="4607"></path><path d="M359.44 588.32V209.84a81.44 81.44 0 0 1 81.2-81.28h180.32a80.48 80.48 0 0 1 81.28 81.28V288H660v-78.16a39.52 39.52 0 0 0-38.96-38.96H439.04A39.52 39.52 0 0 0 400 209.84v376.88h-40.56z" fill="#282E39" p-id="4608"></path></svg>