<svg width="100px" height="100px" viewBox="0 0 100 100" version="1.1" xmlns="http://www.w3.org/2000/svg" xmlns:xlink="http://www.w3.org/1999/xlink">
    <path d="M72.5926318,17.4414926 C72.59286,30.6894086 72.5934047,43.9372618 72.5934047,57.1848154 C70.5396292,63.6466913 65.7899301,68.9074158 59.6669947,71.6473955 C59.6669947,50.0902512 59.6528973,29.490522 59.6669947,7.22961517 L59.6669947,0.938165364 C82.6513706,5.44352923 100,25.6984275 100,50 C100,77.6094454 77.6094454,100 50,100 C22.3905982,100 0,77.6094454 0,50 C0,22.3905982 22.3905982,0 50,0 C51.2589779,0 52.5068873,0.0464528904 53.7423773,0.138094943 L53.7423773,10.5461134 C52.5104606,10.4300248 51.262159,10.3703681 50,10.3703681 C28.1171153,10.3703681 10.3703245,28.1171153 10.3703245,50 C10.3703245,71.8828847 28.1171153,89.6296755 50,89.6296755 C71.8828847,89.6296755 89.6296755,71.8828847 89.6296755,50 C89.6296755,36.5133697 82.8883474,24.5991246 72.5926358,17.4414954 Z M50,26.2963886 C51.2734018,26.2963886 52.5233158,26.3969639 53.7423773,26.5906193 L53.7423773,38.0997369 C52.5610097,37.7281573 51.3039492,37.5275297 50,37.5275297 C43.1129014,37.5275297 37.5275297,43.1129014 37.5275297,50 C37.5275297,56.8871857 43.1129014,62.4724703 50,62.4724703 C51.3039492,62.4724703 52.5610097,62.2718427 53.7423773,61.9003503 L53.7423773,73.409555 C52.5233158,73.6031232 51.2734018,73.7037857 50,73.7037857 C36.911092,73.7037857 26.2962579,63.0889952 26.2962579,50 C26.2962579,36.9110484 36.911092,26.2963886 50,26.2963886 Z" id="Combined-Shape" fill="#1B1918"></path>
</svg>